# Blender v2.82 (sub 7) OBJ File: 'link3.blend'
# www.blender.org
mtllib link3BBox.mtl
o Cube_Cube.001
v 0.086763 -0.005138 0.093188
v 0.055287 0.119938 0.065188
v -0.063448 -0.074086 -0.045951
v -0.094924 0.050990 -0.073950
v 0.173445 0.006216 -0.008175
v 0.141969 0.131293 -0.036174
v 0.023234 -0.062732 -0.147314
v -0.008241 0.062345 -0.175313
vt 0.625000 0.000000
vt 0.375000 0.250000
vt 0.375000 0.000000
vt 0.625000 0.250000
vt 0.375000 0.500000
vt 0.625000 0.500000
vt 0.375000 0.750000
vt 0.625000 1.000000
vt 0.375000 1.000000
vt 0.125000 0.500000
vt 0.125000 0.750000
vt 0.875000 0.500000
vt 0.625000 0.750000
vt 0.875000 0.750000
vn -0.6780 -0.0061 0.7350
vn -0.7023 -0.3192 -0.6363
vn 0.6780 0.0061 -0.7350
vn 0.7023 0.3192 0.6363
vn 0.2963 -0.9436 0.1477
vn -0.2963 0.9436 -0.1477
usemtl None
s off
f 2/1/1 3/2/1 1/3/1
f 4/4/2 7/5/2 3/2/2
f 8/6/3 5/7/3 7/5/3
f 5/7/4 2/8/4 1/9/4
f 3/10/5 5/7/5 1/11/5
f 4/12/6 6/13/6 8/6/6
f 2/1/1 4/4/1 3/2/1
f 4/4/2 8/6/2 7/5/2
f 8/6/3 6/13/3 5/7/3
f 5/7/4 6/13/4 2/8/4
f 3/10/5 7/5/5 5/7/5
f 4/12/6 2/14/6 6/13/6
